HIERARCHY
ROOT CG
{
	OFFSET 0.000000 -0.000000 27.772259
	CHANNELS 6 Xposition Yposition Zposition Xrotation Yrotation Zrotation
	JOINT Pelvis
	{
		OFFSET 0.000000 0.000000 0.000000
		CHANNELS 3 Xrotation Yrotation Zrotation
		JOINT Spine
		{
			OFFSET -0.000017 -10.490843 -0.495483
			CHANNELS 3 Xrotation Yrotation Zrotation
			JOINT Spine1
			{
				OFFSET -0.000010 -22.678980 0.018061
				CHANNELS 3 Xrotation Yrotation Zrotation
				JOINT Spine2
				{
					OFFSET -0.000010 -22.678967 0.018061
					CHANNELS 3 Xrotation Yrotation Zrotation
					JOINT Spine3
					{
						OFFSET -0.000010 -22.678982 0.018059
						CHANNELS 3 Xrotation Yrotation Zrotation
						JOINT Neck
						{
							OFFSET -0.000012 -22.678986 -1.289251
							CHANNELS 3 Xrotation Yrotation Zrotation
							JOINT Neck1
							{
								OFFSET -0.000007 -16.255905 0.012947
								CHANNELS 3 Xrotation Yrotation Zrotation
								JOINT Head
								{
									OFFSET -0.000005 -10.784607 -0.287502
									CHANNELS 3 Xrotation Yrotation Zrotation
									JOINT Jaw01
									{
										OFFSET 0.000031 7.782959 5.073944
										CHANNELS 3 Xrotation Yrotation Zrotation
										JOINT Jaw02
										{
											OFFSET 0.000004 -34.927139 -18.883980
											CHANNELS 3 Xrotation Yrotation Zrotation
											End Site
											{
												OFFSET -0.000170 8.372803 -38.812450
											}
										}
									}
									JOINT Nose
									{
										OFFSET -0.000002 -25.700912 7.222265
										CHANNELS 3 Xrotation Yrotation Zrotation
										End Site
										{
											OFFSET -0.000090 0.641281 -21.715439
										}
									}
									JOINT L_EyeSocket
									{
										OFFSET 7.352326 -19.832718 14.164183
										CHANNELS 3 Xrotation Yrotation Zrotation
										JOINT L_Eye
										{
											OFFSET -0.000868 -0.001053 0.016003
											CHANNELS 3 Xrotation Yrotation Zrotation
											End Site
											{
												OFFSET -0.001505 -0.001846 0.027969
											}
										}
										JOINT L_Eyelid_Top
										{
											OFFSET -0.001004 -0.002625 0.032516
											CHANNELS 3 Xrotation Yrotation Zrotation
											End Site
											{
												OFFSET -0.013218 0.005753 0.024086
											}
										}
										JOINT L_Eyelid_Bottom
										{
											OFFSET -0.001194 -0.002777 0.035381
											CHANNELS 3 Xrotation Yrotation Zrotation
											End Site
											{
												OFFSET -0.010032 0.008636 -0.024754
											}
										}
									}
									JOINT R_EyeSocket
									{
										OFFSET -7.352252 -19.832748 14.164206
										CHANNELS 3 Xrotation Yrotation Zrotation
										JOINT R_Eye
										{
											OFFSET 0.000875 -0.001068 0.015991
											CHANNELS 3 Xrotation Yrotation Zrotation
											End Site
											{
												OFFSET 0.001505 -0.001846 0.027962
											}
										}
										JOINT R_Eyelid_Top
										{
											OFFSET 0.001021 -0.002625 0.032516
											CHANNELS 3 Xrotation Yrotation Zrotation
											End Site
											{
												OFFSET 0.013214 0.005753 0.024078
											}
										}
										JOINT R_Eyelid_Bottom
										{
											OFFSET 0.001170 -0.002762 0.035366
											CHANNELS 3 Xrotation Yrotation Zrotation
											End Site
											{
												OFFSET 0.010029 0.008636 -0.024746
											}
										}
									}
								}
								JOINT Neck_Fat
								{
									OFFSET 0.000044 -9.595100 -17.491512
									CHANNELS 3 Xrotation Yrotation Zrotation
									End Site
									{
										OFFSET -0.000036 15.369423 -0.000007
									}
								}
							}
						}
						JOINT L_Clavicle
						{
							OFFSET 4.567107 -11.666092 -3.750029
							CHANNELS 3 Xrotation Yrotation Zrotation
							JOINT L_UpperArm
							{
								OFFSET 20.725666 -0.000053 -0.000032
								CHANNELS 3 Xrotation Yrotation Zrotation
								JOINT L_Forearm
								{
									OFFSET 5.265112 -0.585754 -20.155697
									CHANNELS 3 Xrotation Yrotation Zrotation
									JOINT L_Hand
									{
										OFFSET 2.653017 -10.877708 -16.383667
										CHANNELS 3 Xrotation Yrotation Zrotation
										JOINT L_Finger0
										{
											OFFSET -4.206146 -4.328911 -5.034346
											CHANNELS 3 Xrotation Yrotation Zrotation
											JOINT L_Finger01
											{
												OFFSET 0.084272 -1.788536 -4.181065
												CHANNELS 3 Xrotation Yrotation Zrotation
												End Site
												{
													OFFSET 3.261885 3.094673 -0.685818
												}
											}
										}
										JOINT L_Finger1
										{
											OFFSET -1.039112 -6.775742 -3.499998
											CHANNELS 3 Xrotation Yrotation Zrotation
											JOINT L_Finger11
											{
												OFFSET 1.320335 -3.040672 -6.425793
												CHANNELS 3 Xrotation Yrotation Zrotation
												End Site
												{
													OFFSET -1.244579 6.832077 -2.013330
												}
											}
										}
										JOINT L_Finger2
										{
											OFFSET 2.531296 -5.656487 -3.286415
											CHANNELS 3 Xrotation Yrotation Zrotation
											JOINT L_Finger21
											{
												OFFSET 1.991665 -2.402016 -5.957748
												CHANNELS 3 Xrotation Yrotation Zrotation
												End Site
												{
													OFFSET -2.793068 5.800873 -1.944178
												}
											}
										}
										JOINT L_Finger3
										{
											OFFSET 5.474075 -3.302338 -2.655975
											CHANNELS 3 Xrotation Yrotation Zrotation
											JOINT L_Finger31
											{
												OFFSET 2.026943 -1.267532 -5.961166
												CHANNELS 3 Xrotation Yrotation Zrotation
												End Site
												{
													OFFSET -4.375172 4.343658 -1.800320
												}
											}
										}
										JOINT L_Finger4
										{
											OFFSET 4.825745 1.085899 -2.321970
											CHANNELS 3 Xrotation Yrotation Zrotation
											JOINT L_Finger41
											{
												OFFSET 3.358261 -1.829651 -3.744434
												CHANNELS 3 Xrotation Yrotation Zrotation
												End Site
												{
													OFFSET -3.843296 2.955200 -2.267633
												}
											}
										}
									}
								}
							}
						}
						JOINT R_Clavicle
						{
							OFFSET -4.567111 -11.666092 -3.750036
							CHANNELS 3 Xrotation Yrotation Zrotation
							JOINT R_UpperArm
							{
								OFFSET -20.725670 -0.000031 0.000038
								CHANNELS 3 Xrotation Yrotation Zrotation
								JOINT R_Forearm
								{
									OFFSET -5.265285 -0.585762 -20.155655
									CHANNELS 3 Xrotation Yrotation Zrotation
									JOINT R_Hand
									{
										OFFSET -2.653147 -10.877739 -16.383663
										CHANNELS 3 Xrotation Yrotation Zrotation
										JOINT R_Finger0
										{
											OFFSET 4.206116 -4.328888 -5.034388
											CHANNELS 3 Xrotation Yrotation Zrotation
											JOINT R_Finger01
											{
												OFFSET -0.084324 -1.788544 -4.181051
												CHANNELS 3 Xrotation Yrotation Zrotation
												End Site
												{
													OFFSET -3.261890 3.094666 -0.685791
												}
											}
										}
										JOINT R_Finger1
										{
											OFFSET 1.039101 -6.775711 -3.499994
											CHANNELS 3 Xrotation Yrotation Zrotation
											JOINT R_Finger11
											{
												OFFSET -1.320374 -3.040672 -6.425779
												CHANNELS 3 Xrotation Yrotation Zrotation
												End Site
												{
													OFFSET 1.244556 6.832077 -2.013342
												}
											}
										}
										JOINT R_Finger2
										{
											OFFSET -2.531307 -5.656464 -3.286409
											CHANNELS 3 Xrotation Yrotation Zrotation
											JOINT R_Finger21
											{
												OFFSET -1.991707 -2.402016 -5.957708
												CHANNELS 3 Xrotation Yrotation Zrotation
												End Site
												{
													OFFSET 2.793037 5.800858 -1.944197
												}
											}
										}
										JOINT R_Finger3
										{
											OFFSET -5.474091 -3.302330 -2.655947
											CHANNELS 3 Xrotation Yrotation Zrotation
											JOINT R_Finger31
											{
												OFFSET -2.026993 -1.267532 -5.961157
												CHANNELS 3 Xrotation Yrotation Zrotation
												End Site
												{
													OFFSET 4.375156 4.343674 -1.800358
												}
											}
										}
										JOINT R_Finger4
										{
											OFFSET -4.825756 1.085922 -2.321926
											CHANNELS 3 Xrotation Yrotation Zrotation
											JOINT R_Finger41
											{
												OFFSET -3.358307 -1.829651 -3.744390
												CHANNELS 3 Xrotation Yrotation Zrotation
												End Site
												{
													OFFSET 3.843273 2.955208 -2.267666
												}
											}
										}
									}
								}
							}
						}
					}
				}
			}
		}
		JOINT Tail01
		{
			OFFSET -0.000010 10.922326 -0.017508
			CHANNELS 3 Xrotation Yrotation Zrotation
			JOINT Tail02
			{
				OFFSET -0.000022 21.986111 0.000013
				CHANNELS 3 Xrotation Yrotation Zrotation
				JOINT Tail03
				{
					OFFSET -0.000022 21.986118 0.000002
					CHANNELS 3 Xrotation Yrotation Zrotation
					JOINT Tail04
					{
						OFFSET -0.000022 21.986122 0.000004
						CHANNELS 3 Xrotation Yrotation Zrotation
						JOINT Tail05
						{
							OFFSET -0.000022 21.986099 0.000010
							CHANNELS 3 Xrotation Yrotation Zrotation
							JOINT Tail06
							{
								OFFSET -0.000022 21.986099 0.000006
								CHANNELS 3 Xrotation Yrotation Zrotation
								JOINT Tail07
								{
									OFFSET -0.000022 21.986099 0.000000
									CHANNELS 3 Xrotation Yrotation Zrotation
									JOINT Tail08
									{
										OFFSET -0.000022 21.984848 0.000050
										CHANNELS 3 Xrotation Yrotation Zrotation
										JOINT Tail09
										{
											OFFSET -0.000025 21.926025 -1.606211
											CHANNELS 3 Xrotation Yrotation Zrotation
											JOINT Tail10
											{
												OFFSET -0.000027 21.750092 -3.203882
												CHANNELS 3 Xrotation Yrotation Zrotation
												End Site
												{
													OFFSET -0.000036 4.767395 21.461668
												}
											}
										}
									}
								}
							}
						}
					}
				}
			}
		}
		JOINT L_Thigh
		{
			OFFSET 24.788780 0.000021 -0.000034
			CHANNELS 3 Xrotation Yrotation Zrotation
			JOINT L_Calf
			{
				OFFSET 4.720837 4.161326 -21.049969
				CHANNELS 3 Xrotation Yrotation Zrotation
				JOINT L_Foot
				{
					OFFSET 2.154160 21.114433 -11.949743
					CHANNELS 3 Xrotation Yrotation Zrotation
					JOINT L_Toe0
					{
						OFFSET 4.557564 9.251841 -8.735286
						CHANNELS 3 Xrotation Yrotation Zrotation
						End Site
						{
							OFFSET 4.555542 -12.646044 1.018752
						}
					}
					JOINT L_Toe1
					{
						OFFSET 2.346291 5.845602 -11.687160
						CHANNELS 3 Xrotation Yrotation Zrotation
						End Site
						{
							OFFSET 5.347954 -12.298279 1.365644
						}
					}
					JOINT L_Toe2
					{
						OFFSET -0.356020 3.902458 -12.541145
						CHANNELS 3 Xrotation Yrotation Zrotation
						End Site
						{
							OFFSET 3.916235 -12.806129 1.542549
						}
					}
					JOINT L_Toe3
					{
						OFFSET -4.603447 3.183935 -12.435249
						CHANNELS 3 Xrotation Yrotation Zrotation
						End Site
						{
							OFFSET 3.810858 -12.587427 2.957583
						}
					}
					JOINT L_Toe4
					{
						OFFSET -7.144358 6.231495 -10.072764
						CHANNELS 3 Xrotation Yrotation Zrotation
						End Site
						{
							OFFSET 3.810858 -12.587425 2.957585
						}
					}
				}
			}
		}
		JOINT R_Thigh
		{
			OFFSET -24.788780 -0.000024 0.000034
			CHANNELS 3 Xrotation Yrotation Zrotation
			JOINT R_Calf
			{
				OFFSET -4.720922 4.161324 -21.049952
				CHANNELS 3 Xrotation Yrotation Zrotation
				JOINT R_Foot
				{
					OFFSET -2.154238 21.114414 -11.949730
					CHANNELS 3 Xrotation Yrotation Zrotation
					JOINT R_Toe0
					{
						OFFSET -4.557598 9.251823 -8.735270
						CHANNELS 3 Xrotation Yrotation Zrotation
						End Site
						{
							OFFSET -4.555508 -12.646051 1.018756
						}
					}
					JOINT R_Toe1
					{
						OFFSET -2.346325 5.845589 -11.687157
						CHANNELS 3 Xrotation Yrotation Zrotation
						End Site
						{
							OFFSET -5.347919 -12.298286 1.365654
						}
					}
					JOINT R_Toe2
					{
						OFFSET 0.355980 3.902462 -12.541145
						CHANNELS 3 Xrotation Yrotation Zrotation
						End Site
						{
							OFFSET -3.916199 -12.806131 1.542559
						}
					}
					JOINT R_Toe3
					{
						OFFSET 4.603411 3.183941 -12.435266
						CHANNELS 3 Xrotation Yrotation Zrotation
						End Site
						{
							OFFSET -3.810825 -12.587429 2.957591
						}
					}
					JOINT R_Toe4
					{
						OFFSET 7.144323 6.231503 -10.072779
						CHANNELS 3 Xrotation Yrotation Zrotation
						End Site
						{
							OFFSET -3.810825 -12.587433 2.957584
						}
					}
				}
			}
		}
	}
}
MOTION
Frames: 5
Frame Time: 0.033333
0.000000 -0.000000 47.991329 0.000000 0.000000 -0.000082 -13.074586 -3.625210 19.575119 13.876204 -2.403275 -13.204879 0.721622 0.483154 -11.778167 -0.345823 0.343243 -11.805067 -5.579355 1.380674 -11.756164 4.139935 0.084162 -16.705908 -0.093640 0.006285 -16.695858 3.809894 -0.150056 -22.851388 -9.112546 0.344102 -0.410333 0.000010 0.000000 -0.000001 -0.000000 -0.000000 -0.000000 -0.000015 -0.000007 0.000001 0.000101 -0.000061 -0.000017 0.000001 -0.000003 0.000000 0.000012 0.000010 0.000004 -0.000004 -0.000007 -0.000009 0.000098 0.000063 -0.000021 -0.000003 -0.000006 0.000002 -0.000003 -0.000012 -0.000011 -0.119194 0.000000 -0.000002 0.000086 10.463204 -10.056654 36.871028 -12.390405 -18.531618 -19.630495 3.925060 -4.629122 -51.179386 20.249631 -41.572209 3.689877 41.715302 35.522451 0.495629 -0.543891 0.064977 31.804930 12.582436 -8.266294 -20.412037 -3.789909 -2.990427 30.681705 6.544595 -6.485832 -31.528724 -14.088799 -7.844851 20.351928 -9.169136 -11.035193 -18.625152 -18.003667 -5.054165 15.912505 -27.329962 -4.519957 0.553289 0.923903 0.210388 0.000177 10.949207 -9.434717 28.174732 11.939633 25.000975 -41.484998 -9.886345 7.950911 -17.809889 -6.264988 -12.003212 51.091659 -19.252053 20.569624 67.430626 29.127851 -45.024525 58.041015 -8.560999 9.180690 56.581803 -12.824751 0.450240 56.242137 -20.608059 10.518105 34.674145 -18.033040 1.285741 35.495998 -21.839783 10.803675 38.978496 -35.606097 8.637362 28.513480 -29.788794 4.914342 48.046358 -51.416411 16.268268 -1.634556 0.063373 0.346866 -1.586966 -2.244527 13.833804 -1.734170 -2.331114 11.908361 0.235842 -1.907743 11.485748 5.076890 -1.412863 13.238266 6.898448 -0.524781 11.486150 7.453791 -0.613745 5.150592 4.946092 -1.444052 -4.850592 0.765602 -3.425491 -19.193117 4.280784 -3.227702 -20.773336 -47.286861 18.031001 16.043527 43.430123 4.743818 8.663534 -28.670501 25.180701 -37.312176 8.242695 33.137786 16.782383 13.266503 20.273021 10.007499 22.013085 9.363539 2.967623 18.494518 8.423326 3.114660 5.881636 10.380169 -6.477046 -34.308337 13.310744 -40.467122 14.691768 -0.839270 -3.291436 -50.998178 12.748986 37.840826 6.063530 26.117190 -5.603982 10.996553 7.513687 -3.931424 16.303101 -9.965114 -1.750078 18.235348 -15.310924 15.214477 -6.000126 -24.357066 11.013561 
0.000000 -0.000000 48.575634 0.000000 0.000000 -0.000082 -13.097564 -3.252610 18.271154 14.128438 -3.066660 -13.227616 0.683007 0.775516 -11.249964 -0.210461 0.619040 -11.291974 -5.432318 1.672390 -11.238235 3.363345 0.049455 -17.279649 -0.503735 -0.006307 -17.271930 4.428410 -0.923642 -21.849763 -9.293825 0.336017 -0.388457 0.000009 -0.000000 0.000000 0.000000 -0.000000 -0.000000 -0.000015 -0.000007 -0.000001 0.000102 -0.000061 -0.000018 0.000001 -0.000002 -0.000000 0.000011 0.000010 0.000004 -0.000004 -0.000007 -0.000002 0.000097 0.000062 -0.000025 -0.000001 -0.000004 0.000002 -0.000002 -0.000012 -0.000014 -0.106503 0.000000 -0.000003 0.000331 9.572937 -6.696865 36.795356 -16.304030 -18.729992 -20.359044 4.100758 -4.774465 -53.504509 21.685101 -39.857463 4.233473 42.723328 34.667721 0.419632 -0.450484 0.076283 32.023680 12.952355 -8.974243 -20.586393 -3.837883 -2.978619 30.869651 6.623611 -6.484418 -31.711339 -14.157713 -7.915827 20.694138 -9.622658 -10.227545 -18.639999 -18.016140 -5.060260 16.704589 -28.072682 -3.303383 0.573803 0.945658 0.208844 0.000782 11.944718 -6.393811 33.628327 10.825421 19.747120 -43.112482 -10.373638 8.104398 -18.251150 -4.016877 -13.377910 50.038485 -21.502641 15.690246 69.233092 29.071402 -46.395569 58.737168 -10.100782 8.692500 57.124345 -12.932991 0.509525 56.164082 -21.034379 10.899650 36.215415 -18.752213 1.593943 35.217996 -21.745005 11.849896 39.055186 -35.654592 8.675750 26.718744 -28.339992 5.590891 52.721493 -53.594333 19.591563 -1.620297 0.063530 0.374257 -1.555675 -2.255245 14.017127 -1.728215 -2.346433 12.285340 -0.460935 -1.952770 11.799024 4.356996 -1.545295 13.889134 6.716960 -0.610501 12.829645 8.429186 -0.590630 7.354126 6.416462 -0.975211 -2.443875 2.319318 -3.169973 -17.845647 5.398821 -3.686142 -21.265157 -51.681559 15.564061 13.681902 44.577878 4.952787 8.833601 -28.305699 20.333482 -38.878909 6.846439 31.106929 16.697948 10.860664 18.428620 10.189683 18.441987 8.039805 3.146404 14.306858 7.380385 4.731116 2.455360 9.828474 -4.457175 -35.233118 13.145002 -37.640985 12.940933 -0.695105 -2.911313 -47.003405 12.133961 36.133497 6.063531 26.117190 -5.603985 10.996553 7.513686 -3.931425 16.303433 -9.965214 -1.750062 18.235345 -15.310923 15.214473 -6.000122 -24.357059 11.013556 
0.000000 -0.000000 49.137245 0.000000 0.000000 -0.000082 -13.113313 -2.722523 16.828025 14.331986 -3.805727 -13.070331 0.635634 1.061384 -10.831372 0.110765 0.900980 -10.890691 -5.090533 1.972293 -10.831433 2.303836 0.026939 -17.919370 -1.108870 -0.002204 -17.914423 5.226867 -1.922208 -20.411894 -9.543682 0.331518 -0.376570 0.000008 -0.000000 -0.000000 0.000000 -0.000000 -0.000001 -0.000016 -0.000007 -0.000001 0.000102 -0.000061 -0.000018 0.000002 -0.000003 0.000000 0.000009 0.000012 0.000002 -0.000004 -0.000007 -0.000006 0.000097 0.000063 -0.000026 -0.000002 -0.000004 -0.000000 -0.000003 -0.000014 -0.000008 -0.092747 0.000000 -0.000004 0.000604 8.706590 -3.425682 36.682204 -20.536096 -18.216161 -21.349143 4.342568 -4.968518 -55.961751 23.140812 -37.800890 4.632281 43.658870 33.859614 0.330901 -0.346737 0.078278 32.031733 13.271237 -9.629710 -20.755719 -3.883564 -2.968892 30.884644 6.627377 -6.478784 -31.907109 -14.230855 -7.991327 20.913425 -10.115651 -9.471971 -18.660495 -18.033376 -5.068671 17.445336 -28.724815 -2.186651 0.582607 0.937033 0.192267 0.001177 12.876667 -0.375412 40.988092 6.159531 12.202641 -44.420630 -10.768035 8.217615 -20.501907 -3.107501 -13.228402 43.790351 -27.321943 3.859270 66.453424 29.133352 -44.289218 56.897760 -12.385198 7.884747 52.763778 -12.047799 0.009259 53.199811 -20.580760 10.712444 33.815068 -17.629722 1.121297 32.689330 -19.300463 12.777846 34.449825 -32.569327 6.481515 22.469738 -22.505149 6.116521 53.642796 -53.981345 20.262711 -1.627490 0.065815 0.404967 -1.534363 -2.260240 14.129271 -1.613646 -2.360597 12.863433 -0.979620 -2.012317 12.147630 3.697230 -1.745829 14.218112 6.296319 -0.775705 13.693581 9.021751 -0.592140 9.304470 7.549200 -0.249375 0.295369 4.081780 -2.621808 -15.602312 6.874401 -3.905418 -20.706615 -56.454556 13.131559 10.794643 45.947912 5.206672 9.031172 -26.684670 16.716524 -41.690699 3.570310 26.212736 16.273086 5.164080 13.958498 10.293256 9.877904 4.796883 3.246014 4.366159 4.405886 8.272771 -5.693514 8.019424 0.238785 -36.195730 12.649760 -34.875212 10.734455 -0.530157 -2.426579 -42.505234 11.430978 34.335614 6.063531 26.117192 -5.603983 10.996565 7.513678 -3.931422 16.303580 -9.965260 -1.750051 18.235353 -15.310924 15.214472 -6.000121 -24.357068 11.013558 
0.000000 -0.000000 49.650887 0.000000 0.000000 -0.000082 -13.113299 -2.065524 15.285415 14.482605 -4.597882 -12.746883 0.581334 1.339157 -10.501754 0.551464 1.183170 -10.579043 -4.623682 2.274002 -10.513875 1.136665 0.016511 -18.589506 -1.835821 0.013948 -18.587376 6.141773 -3.015931 -18.722940 -9.828425 0.328885 -0.368706 0.000004 -0.000000 -0.000000 0.000001 -0.000000 -0.000000 -0.000016 -0.000007 -0.000001 0.000102 -0.000062 -0.000018 0.000001 -0.000001 -0.000001 0.000008 0.000012 0.000001 -0.000004 -0.000007 -0.000004 0.000098 0.000062 -0.000021 0.000001 -0.000002 -0.000000 -0.000006 -0.000012 -0.000015 -0.078519 0.000000 -0.000003 0.000401 7.887855 -0.278340 36.342870 -24.740086 -17.308201 -21.990144 4.500956 -5.091983 -58.672172 24.576156 -35.458220 4.838625 44.501657 33.127698 0.234481 -0.238146 0.072020 31.782837 13.527786 -10.214680 -20.924073 -3.925332 -2.963426 30.688327 6.541341 -6.462133 -32.118357 -14.305444 -8.072936 20.980465 -10.654162 -8.786375 -18.687696 -18.056225 -5.079840 18.101065 -29.267234 -1.207484 0.577032 0.891720 0.157576 0.000970 13.148206 5.927733 47.481744 -0.450315 5.275081 -45.012982 -10.947348 8.265882 -24.044351 -2.649269 -12.416881 33.705785 -32.367676 -11.225587 61.101636 29.010283 -40.230750 53.631625 -14.535573 6.739277 46.045341 -10.608109 -0.618259 48.955015 -19.543348 10.247830 29.278651 -15.429295 0.361256 29.299664 -15.932115 13.800599 28.180237 -27.793904 3.899673 17.746686 -15.240662 7.202112 51.478951 -53.051145 18.694443 -1.634709 0.070415 0.436490 -1.506752 -2.260626 14.360270 -1.513474 -2.371341 13.490274 -1.305445 -2.069733 12.602543 3.188405 -1.906422 14.605161 5.638278 -0.974229 14.405299 8.993702 -0.648519 10.860482 8.054557 0.415319 2.667767 5.733898 -2.014797 -13.154644 9.018250 -3.924672 -19.463090 -60.899442 10.908431 7.323231 46.864134 5.379086 9.159947 -24.304817 13.959362 -45.085027 0.373854 21.353396 15.565870 -0.427008 9.501682 9.945508 1.350184 1.576433 2.861454 -5.347617 0.874555 11.239528 -13.631307 5.578847 4.609867 -37.100167 11.848558 -32.247423 8.087965 -0.357224 -1.837729 -37.725775 10.615069 32.513360 6.063528 26.117185 -5.603985 10.996554 7.513683 -3.931425 16.303556 -9.965254 -1.750054 18.235345 -15.310924 15.214475 -6.000123 -24.357061 11.013557 
0.000000 -0.000000 50.072464 0.000000 0.000000 -0.000082 -13.090446 -1.309924 13.676102 14.558215 -5.411281 -12.281168 0.521491 1.607335 -10.240519 1.045038 1.459792 -10.334906 -4.101630 2.571189 -10.263723 -0.001517 0.012573 -19.254496 -2.589949 0.037557 -19.254862 7.112255 -4.097722 -16.916587 -10.112439 0.326396 -0.358900 0.000007 -0.000000 -0.000001 0.000000 -0.000000 -0.000000 -0.000015 -0.000007 -0.000000 0.000102 -0.000061 -0.000015 0.000002 -0.000005 0.000000 0.000007 0.000016 0.000002 -0.000004 -0.000007 0.000003 0.000097 0.000062 -0.000023 -0.000001 -0.000006 0.000000 -0.000006 -0.000013 -0.000014 -0.064429 -0.000000 0.000001 0.000285 7.152951 2.704928 35.689846 -28.646447 -16.364034 -21.897368 4.477941 -5.074220 -61.578308 25.902227 -32.897763 4.813852 45.238269 32.498211 0.110771 -0.112887 0.050022 31.239383 13.717275 -10.710842 -21.104613 -3.964729 -2.969656 30.254883 6.346920 -6.442771 -32.347089 -14.384819 -8.158405 20.873528 -11.245792 -8.189359 -18.722435 -18.085393 -5.094119 18.635514 -29.682657 -0.393837 0.556147 0.805942 0.101964 0.000394 12.162504 9.822714 51.409447 -5.873918 0.068743 -44.492385 -10.789732 8.223558 -28.325242 -1.730655 -11.775758 24.151882 -34.350859 -23.462868 55.229804 28.501577 -35.785721 50.129364 -15.654360 5.384845 39.469884 -9.128503 -1.051608 45.011387 -18.248507 9.735026 24.367373 -12.948697 -0.258022 26.376184 -13.026001 14.923746 22.665744 -23.054313 2.076215 14.199915 -9.502741 8.765700 47.399293 -51.084955 15.820212 -1.634784 0.075078 0.466315 -1.469424 -2.260477 14.573160 -1.332634 -2.375918 14.096318 -1.509953 -2.121730 13.151894 2.749209 -2.040872 15.006276 4.847932 -1.167082 14.954423 8.554405 -0.751064 12.069795 8.098627 0.978343 4.766557 7.165102 -1.361255 -10.563414 11.401643 -3.686119 -17.623876 -64.331216 9.022388 3.344398 46.650284 5.338657 9.130129 -21.558534 11.556031 -48.484009 -0.938377 19.351229 15.195357 -2.731957 7.668797 9.674503 -2.185067 0.264674 2.554196 -9.314193 -0.724994 12.285293 -16.850813 4.397669 6.308467 -37.690230 10.674249 -29.864637 4.743071 -0.177979 -1.083634 -32.899259 9.669502 30.699856 6.063529 26.117185 -5.603982 10.996554 7.513678 -3.931423 16.303388 -9.965197 -1.750065 18.235348 -15.310924 15.214473 -6.000117 -24.357064 11.013559 
